<svg xmlns="http://www.w3.org/2000/svg" version="1.1" xmlns:xlink="http://www.w3.org/1999/xlink" xmlns:svgjs="http://svgjs.dev/svgjs" width="1000" height="1000" viewBox="0 0 1000 1000"><rect width="1000" height="1000" fill="#ffffff"></rect><g transform="matrix(0.7,0,0,0.7,149.57575757575756,418.44081731084844)"><svg viewBox="0 0 396 92" data-background-color="#ffffff" preserveAspectRatio="xMidYMid meet" height="232" width="1000" xmlns="http://www.w3.org/2000/svg" xmlns:xlink="http://www.w3.org/1999/xlink"><defs></defs><g id="tight-bounds" transform="matrix(1,0,0,1,0.2400000000000091,0.20347787809078)"><svg viewBox="0 0 395.52 91.59304424381843" height="91.59304424381843" width="395.52"><g><svg viewBox="0 0 546.6624190151836 126.59404108841656" height="91.59304424381843" width="395.52"><g transform="matrix(1,0,0,1,151.14241901518358,37.3007545887882)"><svg viewBox="0 0 395.52 51.99253191084016" height="51.99253191084016" width="395.52"><g><svg viewBox="0 0 395.52 51.99253191084016" height="51.99253191084016" width="395.52"><g><svg viewBox="0 0 395.52 51.99253191084016" height="51.99253191084016" width="395.52"><g transform="matrix(1,0,0,1,0,0)"><svg width="395.52" viewBox="4.199999809265137 -33.08000183105469 254.88002014160156 33.69000244140625" height="51.99253191084016" data-palette-color="#f5ba41"><g class="undefined-text-0" data-fill-palette-color="primary" id="text-0"><path d="M20.36 0.2L14.7-12.62Q13.96-12.57 13.13-12.57 12.3-12.57 10.67-12.7L10.67-12.7 10.67 0 4.2 0 4.2-32.64Q7.62-33.08 12.6-33.08L12.6-33.08Q19.38-33.08 22.72-30.58 26.05-28.08 26.05-22.85L26.05-22.85Q26.05-18.8 23-15.92L23-15.92Q22-14.99 20.7-14.31L20.7-14.31 25.68-3.81Q27.15-0.56 27.93 0.05L27.93 0.05 27.81 0.17Q25.44-0.22 20.36 0.2L20.36 0.2ZM13.06-27.32L13.06-27.32Q11.82-27.32 10.67-27.2L10.67-27.2 10.67-17.87Q11.87-17.7 13.48-17.7 15.09-17.7 16.19-17.98 17.29-18.26 18.09-18.85L18.09-18.85Q19.82-20.14 19.82-22.73 19.82-25.32 18.02-26.37L18.02-26.37Q16.33-27.32 13.06-27.32ZM39.69-5.86L49.66-5.86Q51.17-5.86 51.76-6.15L51.76-6.15 51.85-6.13 51.61 0 33.32 0 33.32-32.64Q33.98-32.59 34.79-32.57L34.79-32.57 36.5-32.52Q38.21-32.47 40.21-32.47L40.21-32.47Q45.8-32.47 51.27-32.67L51.27-32.67Q51-30.52 51-26.93L51-26.93Q51-26.54 51.05-26.34L51.05-26.34 51-26.27Q49.73-26.64 47.39-26.64L47.39-26.64 39.69-26.64 39.69-20.41 45.48-20.41Q48.17-20.41 48.7-20.56L48.7-20.56 48.78-14.53Q47.6-14.65 45.75-14.65L45.75-14.65 39.69-14.65 39.69-5.86ZM63.03-7.03L60.74 0.2Q58.64 0 55.83 0L55.83 0 53.9 0 64.52-29.76Q65.23-31.76 65.23-32.09 65.23-32.42 65.2-32.5L65.2-32.5 65.23-32.54Q66.82-32.47 68.6-32.47L68.6-32.47Q70.06-32.47 72.11-32.52L72.11-32.52 72.14-32.47Q72.09-32.37 72.09-32.2L72.09-32.2Q72.09-31.74 72.82-29.74L72.82-29.74 83.66 0.07Q83.17 0.05 82.51 0.05L82.51 0.05Q82.51 0.05 81.25 0L81.25 0Q80.63 0 80.15 0L80.15 0 76.36 0 74.07-7.03 63.03-7.03ZM64.89-12.89L72.16-12.89 68.48-24.24 64.89-12.89ZM94.67 0L92.35 0Q88.76 0 87.59 0.15L87.59 0.15 87.59-32.62Q88.18-32.47 90.02-32.47 91.86-32.47 94.3-32.57L94.3-32.57 94.3-5.86 99.36-5.86Q101.56-5.86 102.87-6.01L102.87-6.01Q102.7-0.29 102.7-0.07L102.7-0.07 102.7 0.17Q100.31 0 94.67 0L94.67 0Z" fill="#f5ba41" data-fill-palette-color="primary"></path><path d="M113.44-5.86L123.4-5.86Q124.92-5.86 125.5-6.15L125.5-6.15 125.6-6.13 125.36 0 107.07 0 107.07-32.64Q107.73-32.59 108.53-32.57L108.53-32.57 110.24-32.52Q111.95-32.47 113.95-32.47L113.95-32.47Q119.54-32.47 125.01-32.67L125.01-32.67Q124.75-30.52 124.75-26.93L124.75-26.93Q124.75-26.54 124.79-26.34L124.79-26.34 124.75-26.27Q123.48-26.64 121.13-26.64L121.13-26.64 113.44-26.64 113.44-20.41 119.23-20.41Q121.91-20.41 122.45-20.56L122.45-20.56 122.52-14.53Q121.35-14.65 119.5-14.65L119.5-14.65 113.44-14.65 113.44-5.86ZM151.72-30.66L151.72-30.66 151.26-23.49 151.09-23.44Q149.28-26.15 144.93-26.95L144.93-26.95Q143.57-27.22 142.31-27.22 141.05-27.22 140.16-27 139.27-26.78 138.63-26.37L138.63-26.37Q137.29-25.49 137.29-24.07L137.29-24.07Q137.29-22.22 138.46-21.29L138.46-21.29Q139.93-20.17 143.32-19.71 146.72-19.26 148.77-18.48 150.82-17.7 152.14-16.5L152.14-16.5Q154.63-14.26 154.63-10.16L154.63-10.16Q154.63-4.79 150.57-1.88L150.57-1.88Q147.11 0.61 141.83 0.61L141.83 0.61Q137.58 0.61 133.43-1L133.43-1Q132.07-1.54 131.04-2.25L131.04-2.25 131.31-10.4 131.41-10.47Q134.43-5.25 141.34-5.25L141.34-5.25Q146.25-5.25 147.84-7.62L147.84-7.62Q148.38-8.42 148.38-9.41 148.38-10.4 148.06-11.05 147.74-11.69 147.01-12.16L147.01-12.16Q145.59-13.09 142.25-13.4 138.9-13.72 136.78-14.6 134.65-15.48 133.39-16.77L133.39-16.77Q131.09-19.12 131.09-23.32L131.09-23.32Q131.09-27.66 134.14-30.35L134.14-30.35Q137.24-33.08 142.5-33.08 147.76-33.08 151.72-30.66ZM172.96-27L172.96 0.15Q171.79 0 166.93 0L166.93 0 166.15 0 166.15-27 161.31-27Q159.16-27 158.77-26.78 158.38-26.56 158.16-26.39L158.16-26.39 158.09-26.42 158.09-32.67 158.16-32.74Q158.97-32.47 162.51-32.47L162.51-32.47 177.82-32.47Q179.96-32.47 180.36-32.69 180.75-32.91 180.97-33.08L180.97-33.08 181.04-33.06 181.04-26.81 180.97-26.73Q180.16-27 176.62-27L176.62-27 172.96-27ZM190.95-7.03L188.65 0.2Q186.55 0 183.75 0L183.75 0 181.82 0 192.44-29.76Q193.15-31.76 193.15-32.09 193.15-32.42 193.12-32.5L193.12-32.5 193.15-32.54Q194.73-32.47 196.51-32.47L196.51-32.47Q197.98-32.47 200.03-32.52L200.03-32.52 200.05-32.47Q200.01-32.37 200.01-32.2L200.01-32.2Q200.01-31.74 200.74-29.74L200.74-29.74 211.58 0.07Q211.09 0.05 210.43 0.05L210.43 0.05Q210.43 0.05 209.16 0L209.16 0Q208.55 0 208.06 0L208.06 0 204.28 0 201.98-7.03 190.95-7.03ZM192.8-12.89L200.08-12.89 196.39-24.24 192.8-12.89ZM227.23-27L227.23 0.15Q226.05 0 221.19 0L221.19 0 220.41 0 220.41-27 215.58-27Q213.43-27 213.04-26.78 212.65-26.56 212.43-26.39L212.43-26.39 212.36-26.42 212.36-32.67 212.43-32.74Q213.24-32.47 216.78-32.47L216.78-32.47 232.08-32.47Q234.23-32.47 234.62-32.69 235.01-32.91 235.23-33.08L235.23-33.08 235.31-33.06 235.31-26.81 235.23-26.73Q234.43-27 230.89-27L230.89-27 227.23-27ZM246.92-5.86L256.89-5.86Q258.4-5.86 258.99-6.15L258.99-6.15 259.08-6.13 258.84 0 240.55 0 240.55-32.64Q241.21-32.59 242.02-32.57L242.02-32.57 243.73-32.52Q245.44-32.47 247.44-32.47L247.44-32.47Q253.03-32.47 258.5-32.67L258.5-32.67Q258.23-30.52 258.23-26.93L258.23-26.93Q258.23-26.54 258.28-26.34L258.28-26.34 258.23-26.27Q256.96-26.64 254.62-26.64L254.62-26.64 246.92-26.64 246.92-20.41 252.71-20.41Q255.4-20.41 255.93-20.56L255.93-20.56 256.01-14.53Q254.84-14.65 252.98-14.65L252.98-14.65 246.92-14.65 246.92-5.86Z" fill="#fce44d" data-fill-palette-color="secondary"></path></g></svg></g></svg></g></svg></g></svg></g><g><svg viewBox="0 0 126.59404108841656 126.59404108841656" height="126.59404108841656" width="126.59404108841656"><g><svg></svg></g><g id="icon-0"><svg viewBox="0 0 126.59404108841656 126.59404108841656" height="126.59404108841656" width="126.59404108841656"><g><path d="M0 63.297c0-34.958 28.339-63.297 63.297-63.297 34.958 0 63.297 28.339 63.297 63.297 0 34.958-28.339 63.297-63.297 63.297-34.958 0-63.297-28.339-63.297-63.297zM63.297 121.905c32.368 0 58.608-26.24 58.608-58.608 0-32.368-26.24-58.608-58.608-58.608-32.368 0-58.608 26.24-58.608 58.608 0 32.368 26.24 58.608 58.608 58.608z" data-fill-palette-color="accent" fill="#fce44d" stroke="transparent"></path></g><g transform="matrix(1,0,0,1,26.66715125760588,36.450412731773824)"><svg viewBox="0 0 73.2597385732048 53.693215624868905" height="53.693215624868905" width="73.2597385732048"><g><svg xmlns="http://www.w3.org/2000/svg" xmlns:xlink="http://www.w3.org/1999/xlink" version="1.1" x="0" y="0" viewBox="17.582000732421875 11.857242584228516 66.66899871826172 48.86275863647461" enable-background="new 0 0 100 100" xml:space="preserve" height="53.693215624868905" width="73.2597385732048" class="icon-x-0" data-fill-palette-color="accent" id="x-0"><g fill="#fce44d" data-fill-palette-color="accent"><path d="M84.25 29.057c0-0.22-0.119-0.422-0.312-0.529l-2.039-1.152 2.043-1.179c0.191-0.108 0.309-0.312 0.309-0.532 0-0.219-0.119-0.422-0.312-0.529L60.584 11.938c-0.189-0.109-0.416-0.107-0.605 0.002l-42.09 24.268c-0.189 0.109-0.307 0.312-0.306 0.532 0.001 0.22 0.119 0.421 0.311 0.53l2.037 1.15-2.042 1.178c-0.19 0.109-0.307 0.313-0.307 0.531 0.001 0.22 0.118 0.422 0.311 0.53l2.038 1.151-2.042 1.18c-0.19 0.108-0.307 0.312-0.307 0.531 0.001 0.219 0.118 0.422 0.311 0.529l2.038 1.152-2.043 1.177c-0.19 0.109-0.307 0.312-0.306 0.533 0 0.22 0.118 0.422 0.311 0.529l23.352 13.199c0.094 0.053 0.197 0.08 0.301 0.08 0.105 0 0.211-0.027 0.307-0.082l17.406-10.037c0.057-0.014 0.119-0.016 0.172-0.047l8.523-4.9c0.066-0.039 0.109-0.1 0.156-0.156l15.834-9.129c0.189-0.109 0.307-0.312 0.305-0.531 0-0.22-0.119-0.422-0.311-0.53L81.9 34.159l2.043-1.177c0.189-0.108 0.307-0.312 0.305-0.532 0-0.219-0.119-0.422-0.311-0.529l-2.039-1.153 2.045-1.178C84.135 29.478 84.25 29.275 84.25 29.057zM60.285 13.171l22.119 12.502-14.789 8.525L45.508 21.693 60.285 13.171zM19.428 36.729l16.312-9.404 22.116 12.499-16.312 9.405L19.428 36.729zM19.428 40.121l1.739-1.002 20.078 11.348c0.096 0.053 0.197 0.077 0.303 0.077 0.104 0 0.211-0.026 0.307-0.082l16.662-9.604v1.979L41.543 52.62 19.428 40.121zM19.428 43.513l1.74-1.003L41.245 53.86c0.096 0.053 0.197 0.077 0.303 0.077 0.104 0 0.211-0.026 0.307-0.082l16.662-9.606v1.979l-16.972 9.783L19.428 43.513zM41.543 59.403l-22.116-12.5 1.74-1.003 20.077 11.347c0.096 0.054 0.197 0.078 0.303 0.078 0.104 0 0.211-0.024 0.307-0.082l16.662-9.604v1.981L41.543 59.403zM82.404 35.846L68.262 44v-1.979l12.408-7.153L82.404 35.846zM82.404 32.456l-14.143 8.153v-1.98l12.406-7.153L82.404 32.456zM68.264 37.219v-1.98l12.408-7.154 1.732 0.979L68.264 37.219z" fill="#fce44d" data-fill-palette-color="accent"></path><g fill="#fce44d" data-fill-palette-color="accent"><g fill="#fce44d" data-fill-palette-color="accent"><path d="M34.975 33.097c0.702-0.046 1.328 0.09 1.887 0.414 0.732 0.426 1 0.895 0.788 1.399-0.13 0.308-0.401 0.605-0.828 0.89l0.881 0.512-0.427 0.246-0.867-0.504c-0.643 0.292-1.197 0.473-1.669 0.528-0.844 0.097-1.659-0.095-2.459-0.567l1.192-0.688c0.403 0.188 0.713 0.297 0.909 0.332 0.31 0.046 0.667-0.012 1.053-0.171l-1.87-1.086-0.459 0.148c-0.729 0.227-1.351 0.32-1.87 0.285-0.52-0.035-0.991-0.176-1.401-0.414-0.269-0.156-0.477-0.325-0.604-0.508-0.134-0.18-0.2-0.36-0.199-0.547 0.001-0.243 0.09-0.458 0.267-0.653 0.109-0.117 0.298-0.273 0.576-0.457l-0.585-0.34 0.426-0.246 0.592 0.344c0.521-0.253 1.007-0.402 1.472-0.445 0.811-0.102 1.572 0.043 2.292 0.437l-1.164 0.672c-0.282-0.141-0.518-0.223-0.7-0.258-0.31-0.054-0.627-0.004-0.938 0.153l1.667 0.969C33.867 33.276 34.549 33.132 34.975 33.097zM36.192 34.855c0.048-0.184-0.092-0.375-0.422-0.567-0.248-0.144-0.537-0.211-0.848-0.195-0.188 0.008-0.452 0.059-0.783 0.148l1.707 0.993C36.049 35.085 36.165 34.957 36.192 34.855M32.381 33.714l-1.532-0.891c-0.251 0.152-0.374 0.3-0.368 0.445 0.013 0.149 0.127 0.286 0.349 0.415 0.25 0.144 0.532 0.207 0.862 0.179C31.874 33.851 32.098 33.8 32.381 33.714" fill="#fce44d" data-fill-palette-color="accent"></path></g><g fill="#fce44d" data-fill-palette-color="accent"><path d="M33.456 36.985c0.202 0.078 0.41 0.098 0.621 0.071l0.161 0.093-1.496 0.863c-0.182-0.058-0.33-0.105-0.431-0.148-0.223-0.082-0.425-0.183-0.619-0.289l-0.605-0.344c-0.423-0.239-0.767-0.352-1.043-0.356-0.27 0-0.594 0.109-0.973 0.328l-1.327 0.766 2.528 1.469-1.326 0.766-6.455-3.751 3.106-1.793c0.46-0.25 0.853-0.414 1.197-0.496 0.337-0.078 0.695-0.106 1.053-0.086 0.303 0.012 0.593 0.055 0.876 0.125 0.27 0.071 0.539 0.179 0.794 0.328 0.303 0.176 0.531 0.394 0.671 0.656 0.141 0.262 0.092 0.531-0.139 0.812 0.412-0.105 0.803-0.129 1.147-0.07 0.337 0.054 0.741 0.21 1.198 0.477l0.43 0.25C33.119 36.829 33.328 36.942 33.456 36.985zM28.679 36.067c0.136-0.218 0.022-0.434-0.341-0.645-0.39-0.227-0.774-0.309-1.159-0.242-0.21 0.036-0.459 0.133-0.744 0.297l-1.496 0.863 1.735 1.008 1.462-0.844C28.428 36.337 28.61 36.192 28.679 36.067" fill="#fce44d" data-fill-palette-color="accent"></path></g></g></g></svg></g></svg></g></svg></g></svg></g></svg></g></svg><rect width="395.52" height="91.59304424381843" fill="none" stroke="none" visibility="hidden"></rect></g></svg></g></svg>