<svg width="48" height="48" viewBox="0 0 48 48" fill="none" xmlns="http://www.w3.org/2000/svg">
<circle cx="24" cy="24" r="24" fill="#F0D108"/>
<g clip-path="url(#clip0_3_78)">
<path d="M31.2 33L24.925 26.725L26.35 25.3L32.625 31.575L31.2 33ZM16.675 33L15.25 31.575L22.5 24.325L19.825 21.65L19.25 22.225L18.15 21.125V23.25L17.55 23.85L14.5 20.8L15.1 20.2H17.25L16.05 19L19.325 15.725C19.6083 15.4416 19.9167 15.25 20.25 15.15C20.5833 15.05 20.95 15 21.35 15C21.75 15 22.1167 15.0708 22.45 15.2125C22.7833 15.3541 23.0917 15.5666 23.375 15.85L20.7 18.525L21.9 19.725L21.3 20.325L23.9 22.925L26.95 19.875C26.8167 19.6583 26.7125 19.4083 26.6375 19.125C26.5625 18.8416 26.525 18.5416 26.525 18.225C26.525 17.3416 26.8458 16.5791 27.4875 15.9375C28.1292 15.2958 28.8917 14.975 29.775 14.975C30.025 14.975 30.2375 15 30.4125 15.05C30.5875 15.1 30.7333 15.1666 30.85 15.25L28.725 17.375L30.6 19.25L32.725 17.125C32.8083 17.2583 32.8792 17.4208 32.9375 17.6125C32.9958 17.8041 33.025 18.025 33.025 18.275C33.025 19.1583 32.7042 19.9208 32.0625 20.5625C31.4208 21.2041 30.6583 21.525 29.775 21.525C29.475 21.525 29.2167 21.5041 29 21.4625C28.7833 21.4208 28.5833 21.3583 28.4 21.275L16.675 33Z" fill="black"/>
</g>
<defs>
<clipPath id="clip0_3_78">
<rect width="24" height="24" fill="white" transform="translate(12 12)"/>
</clipPath>
</defs>
</svg>
