<svg width="32" height="32" viewBox="0 0 32 32" fill="none" xmlns="http://www.w3.org/2000/svg">
<circle cx="16" cy="16" r="16" fill="#F0D108"/>
<path d="M16.0001 15.8334C16.3223 15.8334 16.5973 15.7195 16.8251 15.4917C17.0529 15.2639 17.1667 14.9889 17.1667 14.6667C17.1667 14.3445 17.0529 14.0695 16.8251 13.8417C16.5973 13.6139 16.3223 13.5 16.0001 13.5C15.6779 13.5 15.4029 13.6139 15.1751 13.8417C14.9473 14.0695 14.8334 14.3445 14.8334 14.6667C14.8334 14.9889 14.9473 15.2639 15.1751 15.4917C15.4029 15.7195 15.6779 15.8334 16.0001 15.8334ZM16.0001 21.35C17.4779 20.0056 18.5695 18.7862 19.2751 17.6917C19.9806 16.5973 20.3334 15.6334 20.3334 14.8C20.3334 13.4889 19.914 12.4167 19.0751 11.5834C18.2362 10.75 17.2112 10.3334 16.0001 10.3334C14.789 10.3334 13.764 10.75 12.9251 11.5834C12.0862 12.4167 11.6667 13.4889 11.6667 14.8C11.6667 15.6334 12.0279 16.5973 12.7501 17.6917C13.4723 18.7862 14.5556 20.0056 16.0001 21.35ZM16.0001 22.6667C14.2112 21.1445 12.8751 19.7306 11.9917 18.425C11.1084 17.1195 10.6667 15.9112 10.6667 14.8C10.6667 13.1334 11.2029 11.8056 12.2751 10.8167C13.3473 9.82782 14.589 9.33337 16.0001 9.33337C17.4112 9.33337 18.6529 9.82782 19.7251 10.8167C20.7973 11.8056 21.3334 13.1334 21.3334 14.8C21.3334 15.9112 20.8917 17.1195 20.0084 18.425C19.1251 19.7306 17.789 21.1445 16.0001 22.6667Z" fill="black"/>
</svg>
