<svg width="32" height="32" viewBox="0 0 32 32" fill="none" xmlns="http://www.w3.org/2000/svg">
<circle cx="16" cy="16" r="16" fill="#F0D108"/>
<path d="M10.3333 21.3333C10.0666 21.3333 9.83325 21.2333 9.63325 21.0333C9.43325 20.8333 9.33325 20.6 9.33325 20.3333V11.6666C9.33325 11.4 9.43325 11.1666 9.63325 10.9666C9.83325 10.7666 10.0666 10.6666 10.3333 10.6666H21.6666C21.9333 10.6666 22.1666 10.7666 22.3666 10.9666C22.5666 11.1666 22.6666 11.4 22.6666 11.6666V20.3333C22.6666 20.6 22.5666 20.8333 22.3666 21.0333C22.1666 21.2333 21.9333 21.3333 21.6666 21.3333H10.3333ZM15.9999 16.3L10.3333 12.5833V20.3333H21.6666V12.5833L15.9999 16.3ZM15.9999 15.3L21.5999 11.6666H10.4166L15.9999 15.3ZM10.3333 12.5833V11.6666V20.3333V12.5833Z" fill="black"/>
</svg>
