<svg width="32" height="32" viewBox="0 0 32 32" fill="none" xmlns="http://www.w3.org/2000/svg">
<circle cx="16" cy="16" r="16" fill="#F0D108"/>
<path d="M22.25 22C20.8944 22 19.5472 21.6667 18.2083 21C16.8694 20.3333 15.6667 19.4667 14.6 18.4C13.5333 17.3333 12.6667 16.1306 12 14.7917C11.3333 13.4528 11 12.1056 11 10.75C11 10.5389 11.0722 10.3611 11.2167 10.2167C11.3611 10.0722 11.5389 10 11.75 10H14.0833C14.2389 10 14.375 10.0528 14.4917 10.1583C14.6083 10.2639 14.6833 10.4056 14.7167 10.5833L15.1667 12.6833C15.1889 12.8389 15.1861 12.9806 15.1583 13.1083C15.1306 13.2361 15.0722 13.3444 14.9833 13.4333L13.3167 15.1167C13.9389 16.15 14.6361 17.05 15.4083 17.8167C16.1806 18.5833 17.0556 19.2333 18.0333 19.7667L19.6167 18.1333C19.7278 18.0111 19.8556 17.925 20 17.875C20.1444 17.825 20.2889 17.8167 20.4333 17.85L22.4167 18.2833C22.5833 18.3167 22.7222 18.4 22.8333 18.5333C22.9444 18.6667 23 18.8222 23 19V21.25C23 21.4611 22.9278 21.6389 22.7833 21.7833C22.6389 21.9278 22.4611 22 22.25 22ZM12.8167 14.2L14.1667 12.8333L13.7833 11H12C12 11.4333 12.0667 11.9083 12.2 12.425C12.3333 12.9417 12.5389 13.5333 12.8167 14.2ZM18.9667 20.25C19.4222 20.4611 19.9167 20.6333 20.45 20.7667C20.9833 20.9 21.5 20.9778 22 21V19.2167L20.2833 18.8667L18.9667 20.25Z" fill="black"/>
</svg>
